<?xml version="1.0" encoding="utf-8"?>
<!-- Generator: Adobe Illustrator 16.0.0, SVG Export Plug-In . SVG Version: 6.00 Build 0)  -->
<!DOCTYPE svg PUBLIC "-//W3C//DTD SVG 1.1//EN" "http://www.w3.org/Graphics/SVG/1.1/DTD/svg11.dtd">
<svg version="1.1" id="Calque_1" xmlns="http://www.w3.org/2000/svg" xmlns:xlink="http://www.w3.org/1999/xlink" x="0px" y="0px"
	 width="45px" height="45px" viewBox="0 0 45 45" enable-background="new 0 0 45 45" xml:space="preserve">
<path  fill="white" d="M41,1c1.654,0,3,1.346,3,3v37c0,1.654-1.346,3-3,3H4c-1.654,0-3-1.346-3-3V4c0-1.654,1.346-3,3-3H41 M41,0H4
	C1.791,0,0,1.791,0,4v37c0,2.209,1.791,4,4,4h37c2.209,0,4-1.791,4-4V4C45,1.791,43.209,0,41,0L41,0z"/>
<path fill="white" fill-rule="evenodd" clip-rule="evenodd" d="M22.5,19.5l5.5,6H17L22.5,19.5z"/>
</svg>
